<svg width="30" height="12" viewBox="0 0 30 12" fill="none" xmlns="http://www.w3.org/2000/svg">
<mask id="mask0_1_104" style="mask-type:alpha" maskUnits="userSpaceOnUse" x="-2" y="-12" width="33" height="33">
<rect x="-1.33902" y="-11.536" width="32.1367" height="32.1367" fill="#D9D9D9"/>
</mask>
<g mask="url(#mask0_1_104)">
<path d="M0 12V10.8438C0 10.0214 0.439424 9.33893 1.31827 8.7964C2.19734 8.2541 3.32871 7.98294 4.71237 7.98294C4.91657 7.98294 5.13539 7.99276 5.36883 8.0124C5.60249 8.03227 5.85066 8.06452 6.11333 8.10915C5.90377 8.4747 5.7509 8.84974 5.65471 9.23427C5.55875 9.61879 5.51077 10.0042 5.51077 10.3905V12H0ZM8.03416 12V10.4936C8.03416 9.95399 8.19083 9.46067 8.50416 9.01366C8.81749 8.56687 9.27968 8.18034 9.89072 7.85406C10.502 7.52801 11.214 7.28342 12.0268 7.12028C12.8396 6.95714 13.737 6.87557 14.7189 6.87557C15.7198 6.87557 16.6267 6.95714 17.4395 7.12028C18.2523 7.28342 18.9643 7.52801 19.5756 7.85406C20.1866 8.18034 20.6476 8.56687 20.9585 9.01366C21.2691 9.46067 21.4244 9.95399 21.4244 10.4936V12H8.03416ZM23.9478 12V10.3982C23.9478 9.97107 23.9011 9.56858 23.8076 9.19075C23.7141 8.81292 23.5738 8.45239 23.3868 8.10915C23.6664 8.06452 23.9175 8.03227 24.14 8.0124C24.3623 7.99276 24.5729 7.98294 24.772 7.98294C26.1557 7.98294 27.2827 8.25287 28.153 8.79272C29.0234 9.33257 29.4586 10.0163 29.4586 10.8438V12H23.9478ZM9.41169 10.661H20.0546V10.3778C20.0031 9.74243 19.4824 9.22311 18.4926 8.81984C17.5031 8.41634 16.2486 8.2146 14.7293 8.2146C13.2099 8.2146 11.9555 8.41634 10.966 8.81984C9.9762 9.22311 9.45811 9.74243 9.41169 10.3778V10.661ZM4.70534 6.72091C4.17955 6.72091 3.73165 6.53434 3.36163 6.1612C2.99183 5.78806 2.80694 5.33948 2.80694 4.81548C2.80694 4.29705 2.99351 3.85417 3.36665 3.48683C3.73979 3.11949 4.18837 2.93582 4.71237 2.93582C5.2308 2.93582 5.67803 3.11949 6.05408 3.48683C6.4299 3.85417 6.61781 4.29962 6.61781 4.82318C6.61781 5.33134 6.43458 5.77467 6.06814 6.15316C5.70147 6.53166 5.2472 6.72091 4.70534 6.72091ZM24.772 6.72091C24.2587 6.72091 23.8128 6.53166 23.4343 6.15316C23.0558 5.77467 22.8666 5.33134 22.8666 4.82318C22.8666 4.29962 23.0558 3.85417 23.4343 3.48683C23.8128 3.11949 24.2604 2.93582 24.777 2.93582C25.3093 2.93582 25.7591 3.11949 26.1264 3.48683C26.4938 3.85417 26.6774 4.29705 26.6774 4.81548C26.6774 5.33948 26.4949 5.78806 26.1298 6.1612C25.7644 6.53434 25.3119 6.72091 24.772 6.72091ZM14.7383 5.8713C13.9255 5.8713 13.2316 5.58586 12.6565 5.01499C12.0814 4.44434 11.7938 3.75128 11.7938 2.93582C11.7938 2.10406 12.0791 1.40687 12.6498 0.844258C13.2207 0.28142 13.9138 0 14.7293 0C15.5611 0 16.2582 0.280527 16.8209 0.841579C17.3835 1.40241 17.6648 2.09747 17.6648 2.92678C17.6648 3.73957 17.3844 4.43352 16.8235 5.00863C16.2627 5.58374 15.5676 5.8713 14.7383 5.8713ZM14.742 4.53227C15.1817 4.53227 15.5555 4.37393 15.8635 4.05725C16.1717 3.74035 16.3258 3.36219 16.3258 2.92276C16.3258 2.48334 16.1728 2.10953 15.8668 1.80133C15.5608 1.49313 15.1817 1.33903 14.7293 1.33903C14.2984 1.33903 13.9245 1.49212 13.6079 1.79831C13.2912 2.10428 13.1328 2.48345 13.1328 2.93582C13.1328 3.36654 13.2912 3.74035 13.6079 4.05725C13.9245 4.37393 14.3026 4.53227 14.742 4.53227Z" fill="#535353"/>
</g>
</svg>
