<svg width="22" height="22" viewBox="0 0 22 22" fill="none" xmlns="http://www.w3.org/2000/svg">
<mask id="mask0_1_155" style="mask-type:alpha" maskUnits="userSpaceOnUse" x="-3" y="-3" width="28" height="28">
<rect x="-2.19992" y="-2.19998" width="26.4" height="26.4" fill="#D9D9D9"/>
</mask>
<g mask="url(#mask0_1_155)">
<path d="M9.46001 16.06L17.215 8.30501L15.675 6.76501L9.46001 12.98L6.32501 9.84501L4.785 11.385L9.46001 16.06ZM11 22C9.47834 22 8.04834 21.7113 6.71001 21.1338C5.37167 20.5563 4.2075 19.7725 3.2175 18.7825C2.2275 17.7925 1.44375 16.6284 0.866251 15.29C0.28875 13.9517 0 12.5217 0 11C0 9.47834 0.28875 8.04834 0.866251 6.71001C1.44375 5.37167 2.2275 4.2075 3.2175 3.2175C4.2075 2.2275 5.37167 1.44375 6.71001 0.866251C8.04834 0.28875 9.47834 0 11 0C12.5217 0 13.9517 0.28875 15.29 0.866251C16.6284 1.44375 17.7925 2.2275 18.7825 3.2175C19.7725 4.2075 20.5563 5.37167 21.1338 6.71001C21.7113 8.04834 22 9.47834 22 11C22 12.5217 21.7113 13.9517 21.1338 15.29C20.5563 16.6284 19.7725 17.7925 18.7825 18.7825C17.7925 19.7725 16.6284 20.5563 15.29 21.1338C13.9517 21.7113 12.5217 22 11 22Z" fill="#1EB700"/>
</g>
</svg>
